<svg width="24" height="24" viewBox="0 0 24 24" fill="none" xmlns="http://www.w3.org/2000/svg">
<path fill-rule="evenodd" clip-rule="evenodd" d="M11.6115 2C6.30323 2 2 6.20819 2 11.3993C2 16.5903 6.30323 20.7985 11.6115 20.7985C13.8819 20.7985 15.9684 20.0287 17.613 18.7415L20.7371 21.7886L20.8202 21.8586C21.1102 22.0685 21.5214 22.0446 21.7839 21.7873C22.0726 21.5043 22.072 21.0459 21.7825 20.7636L18.6952 17.7523C20.2649 16.0794 21.2231 13.8487 21.2231 11.3993C21.2231 6.20819 16.9198 2 11.6115 2ZM11.6115 3.44774C16.1022 3.44774 19.7426 7.00776 19.7426 11.3993C19.7426 15.7908 16.1022 19.3508 11.6115 19.3508C7.12086 19.3508 3.48044 15.7908 3.48044 11.3993C3.48044 7.00776 7.12086 3.44774 11.6115 3.44774Z" fill="#9E9E9E"/>
<path d="M17.613 18.7415L17.9621 18.3836L17.6491 18.0783L17.3048 18.3478L17.613 18.7415ZM20.7371 21.7886L20.3879 22.1466L20.401 22.1593L20.415 22.1711L20.7371 21.7886ZM20.8202 21.8586L20.4981 22.2411L20.5122 22.2529L20.527 22.2637L20.8202 21.8586ZM21.7839 21.7873L22.1339 22.1443V22.1443L21.7839 21.7873ZM21.7825 20.7636L21.4334 21.1215L21.4334 21.1215L21.7825 20.7636ZM18.6952 17.7523L18.3306 17.4102L17.995 17.7678L18.3461 18.1102L18.6952 17.7523ZM2.5 11.3993C2.5 6.4948 6.56879 2.5 11.6115 2.5V1.5C6.03768 1.5 1.5 5.92158 1.5 11.3993H2.5ZM11.6115 20.2985C6.56879 20.2985 2.5 16.3037 2.5 11.3993H1.5C1.5 16.8769 6.03768 21.2985 11.6115 21.2985V20.2985ZM17.3048 18.3478C15.7458 19.568 13.7672 20.2985 11.6115 20.2985V21.2985C13.9965 21.2985 16.1909 20.4895 17.9212 19.1353L17.3048 18.3478ZM21.0862 21.4307L17.9621 18.3836L17.2639 19.0994L20.3879 22.1466L21.0862 21.4307ZM21.1422 21.4762L21.0591 21.4062L20.415 22.1711L20.4981 22.2411L21.1422 21.4762ZM21.4338 21.4303C21.3488 21.5137 21.2098 21.5234 21.1133 21.4536L20.527 22.2637C21.0107 22.6137 21.6941 22.5756 22.1339 22.1443L21.4338 21.4303ZM21.4334 21.1215C21.5221 21.208 21.5222 21.3436 21.4338 21.4303L22.1339 22.1443C22.6229 21.6649 22.6219 20.8838 22.1316 20.4057L21.4334 21.1215ZM18.3461 18.1102L21.4334 21.1215L22.1316 20.4057L19.0443 17.3944L18.3461 18.1102ZM20.7231 11.3993C20.7231 13.7153 19.8178 15.8252 18.3306 17.4102L19.0598 18.0944C20.7121 16.3336 21.7231 13.9822 21.7231 11.3993H20.7231ZM11.6115 2.5C16.6543 2.5 20.7231 6.4948 20.7231 11.3993H21.7231C21.7231 5.92158 17.1854 1.5 11.6115 1.5V2.5ZM20.2426 11.3993C20.2426 6.72115 16.3678 2.94774 11.6115 2.94774V3.94774C15.8367 3.94774 19.2426 7.29437 19.2426 11.3993H20.2426ZM11.6115 19.8508C16.3678 19.8508 20.2426 16.0774 20.2426 11.3993H19.2426C19.2426 15.5042 15.8367 18.8508 11.6115 18.8508V19.8508ZM2.98044 11.3993C2.98044 16.0774 6.8553 19.8508 11.6115 19.8508V18.8508C7.38641 18.8508 3.98044 15.5042 3.98044 11.3993H2.98044ZM11.6115 2.94774C6.8553 2.94774 2.98044 6.72115 2.98044 11.3993H3.98044C3.98044 7.29437 7.38641 3.94774 11.6115 3.94774V2.94774Z" fill="#9E9E9E"/>
</svg>
